<?xml version="1.0" encoding="UTF-8"?>
<svg width="33px" height="32px" viewBox="0 0 33 32" version="1.1" xmlns="http://www.w3.org/2000/svg" xmlns:xlink="http://www.w3.org/1999/xlink">
    <title>quote</title>
    <g id="Page-1" stroke="none" stroke-width="1" fill="none" fill-rule="evenodd">
        <g id="h4_22---assets" transform="translate(-1626.000000, -5619.000000)" fill="#FFFFFF" fill-rule="nonzero">
            <g id="quote" transform="translate(1626.500000, 5619.000000)">
                <path d="M31.4,23 C31.4,24.6666667 30.7833333,26.0833333 29.55,27.25 C28.3166667,28.4166667 26.7666667,29 24.9,29 C22.8333333,29 21.1,28.2666667 19.7,26.8 C18.3,25.3333333 17.6,23.2333333 17.6,20.5 C17.6,15.1 18.9833333,10.9166667 21.75,7.95 C24.5166667,4.98333333 27.5666667,3.33333333 30.9,3 L30.9,7.7 C28.7666667,8.16666667 27,9.36666667 25.6,11.3 C24.2,13.2333333 23.4666667,15.2666667 23.4,17.4 C23.8666667,17.0666667 24.5333333,16.9 25.4,16.9 C27.1333333,16.9 28.5666667,17.45 29.7,18.55 C30.8333333,19.65 31.4,21.1333333 31.4,23 Z M14.3,23 C14.3,24.6666667 13.6833333,26.0833333 12.45,27.25 C11.2166667,28.4166667 9.66666667,29 7.8,29 C5.73333333,29 4,28.2666667 2.6,26.8 C1.2,25.3333333 0.5,23.2333333 0.5,20.5 C0.5,15.1 1.88333333,10.9166667 4.65,7.95 C7.41666667,4.98333333 10.4666667,3.33333333 13.8,3 L13.8,7.7 C11.6666667,8.16666667 9.9,9.36666667 8.5,11.3 C7.1,13.2333333 6.36666667,15.2666667 6.3,17.4 C6.76666667,17.0666667 7.43333333,16.9 8.3,16.9 C10.0333333,16.9 11.4666667,17.45 12.6,18.55 C13.7333333,19.65 14.3,21.1333333 14.3,23 Z" id="Shape"></path>
            </g>
        </g>
    </g>
</svg>