<svg xmlns="http://www.w3.org/2000/svg" id="Layer_1" viewBox="0 0 200 200" class="mdl-js"><defs><style>.cls-1{fill:none;stroke:#099dfd;stroke-linecap:round;stroke-miterlimit:10;stroke-width:10.53px;}</style></defs><g><path class="cls-1" d="M151.87,95.2s.05-.05,.08-.08c11.46-11.46,11.47-30.05,0-41.52"/><path class="cls-1" d="M168.16,111.49s.05-.05,.08-.08c20.46-20.46,20.46-53.63,0-74.09"/></g><g><path class="cls-1" d="M49.13,53.61s-.05,.05-.08,.08c-11.46,11.46-11.47,30.05,0,41.52"/><path class="cls-1" d="M32.84,37.32s-.05,.05-.08,.08c-20.46,20.46-20.46,53.63,0,74.09"/></g><circle class="cls-1" cx="102.72" cy="74.4" r="29.3"/><g><path class="cls-1" d="M155.55,156.33h0c0-29.11-23.6-52.71-52.71-52.71s-52.71,23.6-52.71,52.71h0"/><circle class="cls-1" cx="102.72" cy="74.4" r="29.3"/></g></svg>